:SAMPLES-PER-SECOND 30
:FULLY-SPECIFIED
:DEGREES
899
root  13.4753 40.7413 9.4825 176.658 80.3711 176.282
RightUpLeg  -1.98826 -10.8792 -7.52453
RightLeg  7.32661 -18.7231 3.33593
RightFoot  -1.47745 0.0268255 -0.427075
RightToes  0.000481921 0.542163 -0.142578
Spine  7.36321 -2.07723 -8.53379
Spine1  -2.07952 -3.85754 8.70834
HEad  12.0679 1.88709 0.152108
LeftShoulder1  4.94139 -7.76648 -37.6544
LeftArm  -4.67836 18.441 -36.056
LeftForeArm  -178.749 -50.2243 -168.657
LeftHand  -0.25398 0.0180481 5.50724
RightShoulder  2.46583 3.38907 29.7658
RightArm  -9.60749 -19.3054 49.3694
RightForeArm  165.495 52.9032 166.595
RightHand  -0.00246539 -1.42532 0.284963
LeftUpLeg  -3.38473 6.36883 6.63535
LeftLeg  2.62154 7.67649 -3.30401
LeftFoot  2.56754 0.451387 -3.82829
LeftToes  1.06247e-005 4.65869e-005 -8.65511e-006
900
root  13.5625 40.7242 9.42533 176.995 79.8074 176.896
RightUpLeg  -1.5119 -10.9631 -7.64786
RightLeg  7.55869 -19.0915 3.2275
RightFoot  -1.7695 -0.00111553 -0.131298
RightToes  0.000481921 0.542163 -0.142578
Spine  7.84443 -3.62256 -9.26489
Spine1  -2.25423 -5.67024 9.79136
HEad  11.8913 4.75076 -0.882893
LeftShoulder1  4.1214 -6.20354 -36.3127
LeftArm  -7.75627 20.8924 -36.9894
LeftForeArm  -178.33 -47.3183 -169.774
LeftHand  -0.25398 0.0180481 5.50724
RightShoulder  2.32843 3.11309 29.2
RightArm  -8.29782 -30.8734 51.3927
RightForeArm  161.079 51.4419 166.704
RightHand  -0.0650634 -1.28007 -1.59451
LeftUpLeg  -3.46881 6.43528 6.57988
LeftLeg  3.47568 7.00954 -3.10643
LeftFoot  2.11849 0.420619 -3.67359
LeftToes  1.06247e-005 4.65869e-005 -8.65511e-006
901
root  13.5783 40.7367 9.30098 174.417 82.2571 175.124
RightUpLeg  -1.17537 -10.8275 -7.87299
RightLeg  7.7625 -16.6884 2.91933
RightFoot  -1.65372 -0.011999 0.00628614
RightToes  0.000481921 0.542163 -0.142578
Spine  8.29014 -3.90398 -8.22423
Spine1  -2.15843 -5.66854 8.03448
HEad  13.0369 6.44777 -0.690812
LeftShoulder1  3.8829 -5.76032 -35.7685
LeftArm  -10.4895 22.8617 -37.3908
LeftForeArm  -178.528 -45.1121 -170.516
LeftHand  -0.25398 0.0180481 5.50724
RightShoulder  2.50268 3.76279 28.4271
RightArm  -7.24708 -34.5148 52.6404
RightForeArm  158.291 53.4513 165.548
RightHand  -0.138125 -1.52922 -3.82702
LeftUpLeg  -1.91271 6.61094 6.57494
LeftLeg  3.27061 9.11903 -3.26012
LeftFoot  1.82942 0.394386 -3.51257
LeftToes  1.06247e-005 4.65869e-005 -8.65511e-006
902
root  13.5407 40.75 9.13273 157.075 86.313 158.519
RightUpLeg  -1.39797 -10.5979 -8.05683
RightLeg  7.98543 -12.7595 2.53135
RightFoot  -1.30963 -0.0185768 0.0893967
RightToes  0.000481921 0.542163 -0.142578
Spine  8.11207 -2.93719 -6.1563
Spine1  -1.60377 -4.13522 5.15775
HEad  14.6232 6.21699 0.0902704
LeftShoulder1  4.19039 -6.29595 -36.5872
LeftArm  -11.5674 22.4235 -36.585
LeftForeArm  -178.33 -44.8758 -170.6
LeftHand  -0.25398 0.0180481 5.50724
RightShoulder  2.71596 4.36685 28.4964
RightArm  -5.52937 -31.7396 51.6066
RightForeArm  159.338 55.4854 164.591
RightHand  -0.214569 -1.10672 -5.62221
LeftUpLeg  0.00378273 6.95065 6.53445
LeftLeg  2.69978 12.7244 -3.66907
LeftFoot  1.54188 0.373692 -3.39298
LeftToes  1.06247e-005 4.65869e-005 -8.65511e-006
903
root  13.4812 40.7464 8.94296 91.0921 88.6395 92.9064
RightUpLeg  -1.91015 -10.3417 -8.15811
RightLeg  7.98201 -9.2342 2.44819
RightFoot  -0.872654 -0.0228282 0.144523
RightToes  0.000481921 0.542163 -0.142578
Spine  7.43943 -1.79469 -3.92873
Spine1  -0.737001 -2.49401 2.94826
HEad  15.5794 5.66931 0.315602
LeftShoulder1  4.66251 -7.04044 -38.0172
LeftArm  -11.7451 20.4831 -35.31
LeftForeArm  -178.027 -46.2317 -170.168
LeftHand  -0.25398 0.0180481 5.50724
RightShoulder  2.86856 4.61287 29.3555
RightArm  -2.76627 -25.0104 48.7408
RightForeArm  161.201 57.026 163.877
RightHand  -0.306867 -0.279434 -6.94829
LeftUpLeg  1.13764 7.35718 6.48381
LeftLeg  2.63198 16.0061 -4.00639
LeftFoot  1.05036 0.359068 -3.36677
LeftToes  1.06247e-005 4.65869e-005 -8.65511e-006
904
root  13.4174 40.7347 8.75681 15.7969 86.6194 17.7632
RightUpLeg  -2.35469 -10.1562 -8.20754
RightLeg  7.74281 -6.59696 2.66328
RightFoot  -0.377308 -0.0228041 0.139029
RightToes  0.000481921 0.542163 -0.142578
Spine  6.99377 -1.11801 -1.94846
Spine1  -0.180648 -1.50302 1.70837
HEad  15.8989 6.16724 -0.376097
LeftShoulder1  5.04683 -7.64469 -39.0329
LeftArm  -12.2195 19.1812 -34.5723
LeftForeArm  -178.811 -47.8509 -169.554
LeftHand  -0.25398 0.0180481 5.50724
RightShoulder  2.97465 4.80671 29.8187
RightArm  -0.257503 -17.0831 46.3476
RightForeArm  163.392 58.8737 162.945
RightHand  -0.397278 0.552939 -7.84754
LeftUpLeg  1.57035 7.69013 6.48171
LeftLeg  3.0585 18.4946 -4.11914
LeftFoot  0.451538 0.343246 -3.35016
LeftToes  1.06247e-005 4.65869e-005 -8.65511e-006
905
root  13.3587 40.7285 8.59958 10.4521 84.4455 12.498
RightUpLeg  -2.71948 -9.96518 -8.1826
RightLeg  7.47773 -4.65354 2.81838
RightFoot  0.118158 -0.0241917 0.158824
RightToes  0.000481921 0.542163 -0.142578
Spine  7.13718 -0.737027 -0.215929
Spine1  -0.277963 -0.874155 0.726425
HEad  16.0746 7.06285 -1.28012
LeftShoulder1  5.33925 -8.20764 -39.3454
LeftArm  -12.6823 19.0745 -34.4012
LeftForeArm  179.416 -48.8203 -169.079
LeftHand  -0.25398 0.0180481 5.50724
RightShoulder  3.03654 5.10987 29.27
RightArm  0.638742 -10.7859 45.6439
RightForeArm  168.056 60.4438 162.344
RightHand  -0.478777 1.40874 -8.34049
LeftUpLeg  1.80576 7.89001 6.44092
LeftLeg  3.39107 20.4479 -4.11749
LeftFoot  0.0336218 0.321661 -3.23325
LeftToes  1.06247e-005 4.65869e-005 -8.65511e-006
906
root  13.3151 40.7343 8.48084 8.56256 83.0946 10.4949
RightUpLeg  -3.13488 -9.71283 -8.13531
RightLeg  7.23971 -3.55492 2.75955
RightFoot  0.538644 -0.0317478 0.275374
RightToes  0.000481921 0.542163 -0.142578
Spine  7.36035 -0.449276 1.25787
Spine1  -0.602479 -0.312488 -0.446744
HEad  16.1496 7.2181 -1.61967
LeftShoulder1  5.53395 -8.67164 -39.2191
LeftArm  -12.2251 19.1474 -34.2533
LeftForeArm  178.312 -49.0217 -168.926
LeftHand  -0.25398 0.0180481 5.50724
RightShoulder  3.04901 5.37517 28.3327
RightArm  -0.0890134 -7.97636 45.9495
RightForeArm  172.037 60.5329 162.644
RightHand  -0.543136 1.87222 -8.88336
LeftUpLeg  1.86908 7.85251 6.23705
LeftLeg  3.29406 21.8666 -4.14645
LeftFoot  -0.0580022 0.301631 -3.04824
LeftToes  1.06247e-005 4.65869e-005 -8.65511e-006
